<?xml version="1.0" encoding="UTF-8" standalone="no"?>
<!-- Created with Inkscape (http://www.inkscape.org/) -->

<svg
   width="257.1185mm"
   height="163.01506mm"
   viewBox="0 0 257.1185 163.01506"
   version="1.1"
   id="svg1"
   xml:space="preserve"
   inkscape:version="1.4.2 (f4327f4, 2025-05-13)"
   sodipodi:docname="Zeichnung.svg"
   xmlns:inkscape="http://www.inkscape.org/namespaces/inkscape"
   xmlns:sodipodi="http://sodipodi.sourceforge.net/DTD/sodipodi-0.dtd"
   xmlns="http://www.w3.org/2000/svg"
   xmlns:svg="http://www.w3.org/2000/svg"><sodipodi:namedview
     id="namedview1"
     pagecolor="#ffffff"
     bordercolor="#000000"
     borderopacity="0.25"
     inkscape:showpageshadow="2"
     inkscape:pageopacity="0.0"
     inkscape:pagecheckerboard="0"
     inkscape:deskcolor="#d1d1d1"
     inkscape:document-units="mm"
     inkscape:zoom="0.97386896"
     inkscape:cx="496.98678"
     inkscape:cy="333.20705"
     inkscape:window-width="1920"
     inkscape:window-height="991"
     inkscape:window-x="430"
     inkscape:window-y="1791"
     inkscape:window-maximized="1"
     inkscape:current-layer="layer1" /><defs
     id="defs1" /><g
     inkscape:label="Ebene 1"
     inkscape:groupmode="layer"
     id="layer1"
     transform="translate(21.773275,-53.103004)"><path
       style="fill:#000000"
       d="m 83.418092,216.04986 c -0.842868,-0.14041 -2.178079,-1.17311 -2.693652,-2.08338 l -0.474384,-0.83754 -0.0035,-58.11305 -0.0035,-58.113047 0.563816,-0.86953 c 0.310098,-0.47824 0.953036,-1.09262 1.42875,-1.36529 l 0.864934,-0.49575 h 25.611664 25.61168 l 0.9525,0.47677 c 0.55053,0.27557 1.22047,0.85619 1.5875,1.37584 l 0.635,0.89906 0.0579,57.890827 c 0.0637,63.6546 0.15607,58.98357 -1.18965,60.13687 -1.42944,1.22503 0.57638,1.13866 -27.01994,1.1635 -13.969997,0.0126 -25.638122,-0.0168 -25.929164,-0.0653 z m 27.834168,-22.79032 c 2.86822,-0.77297 5.07999,-2.5606 6.37318,-5.15102 l 0.82349,-1.64958 v -2.64583 c 0,-2.58961 -0.0155,-2.67699 -0.72793,-4.11169 -1.71947,-3.46255 -4.8772,-5.4039 -8.80006,-5.41023 -2.91302,-0.005 -5.21829,1.01952 -7.16298,3.18248 -1.67952,1.86803 -2.464867,3.92161 -2.464867,6.44527 0,2.7519 0.866367,4.80789 2.858317,6.7831 2.42972,2.40932 5.96462,3.40269 9.10085,2.5575 z m -4.02167,-3.39114 c -2.26299,-0.712 -3.41119,-1.84803 -4.22252,-4.17775 -1.308,-3.75587 1.84224,-8.02432 5.91586,-8.01574 2.26763,0.005 4.11271,1.00839 5.34106,2.90524 0.77196,1.19209 0.79149,1.27154 0.79434,3.23296 0.004,2.40156 -0.34522,3.22741 -1.98554,4.7022 -1.61058,1.44804 -3.87489,1.97238 -5.8432,1.35309 z m 23.77017,-23.66596 c 0.19533,-0.19532 0.254,-7.67141 0.254,-32.36236 0,-28.72853 -0.0343,-32.12153 -0.32625,-32.23355 -0.60042,-0.2304 -43.496637,-0.14243 -43.93111,0.0901 -0.39523,0.21152 -0.404308,0.93524 -0.404308,32.2341 0,24.62045 0.05868,32.0764 0.254,32.27172 0.368521,0.36852 43.785148,0.36852 44.153668,0 z m -22.21479,-8.88093 c -0.50621,-0.59364 -0.98274,-1.17714 -1.05897,-1.29666 -0.0886,-0.13897 -0.48844,-0.0529 -1.10894,0.2388 -1.68368,0.79143 -3.21548,0.49849 -4.13328,-0.79044 -0.58367,-0.81969 -0.56563,-0.8701 0.31132,-0.8701 2.77559,0 4.40765,-3.20988 4.28239,-8.42246 l -0.0596,-2.47838 -1.27,2.19527 -1.27,2.19526 -0.10584,-1.21771 -0.10583,-1.2177 -1.53458,1.55509 c -0.84403,0.8553 -1.53459,1.62401 -1.53459,1.70823 0,0.15004 1.06751,0.33617 2.54,0.44288 0.71986,0.0522 0.74261,0.081 0.80364,1.01734 0.0491,0.75395 -0.0315,1.04898 -0.37041,1.35572 -0.42756,0.38694 -0.43323,0.38359 -0.43323,-0.25592 0,-0.54728 -0.0669,-0.6305 -0.43029,-0.53547 -0.23686,0.0619 -0.59368,-0.0347 -0.79375,-0.21499 -0.1999,-0.18013 -0.63408,-0.39507 -0.96483,-0.47763 l -0.60138,-0.15011 0.10136,1.3507 c 0.0558,0.74289 0.17377,1.62824 0.26226,1.96745 0.13586,0.52075 0.10661,0.59591 -0.1879,0.48289 -0.44478,-0.17068 -0.45403,0.24344 -0.0193,0.86411 0.30668,0.43784 0.30097,0.47043 -0.0824,0.47043 -0.22654,0 -0.63675,-0.18268 -0.91159,-0.40595 -0.471178,-0.38278 -0.496205,-0.5217 -0.438522,-2.43417 0.04055,-1.3445 -0.01561,-2.02822 -0.166589,-2.02822 -0.12527,0 -0.805568,0.58503 -1.511772,1.30006 -0.896622,0.90783 -1.333295,1.22031 -1.44737,1.03574 -0.259842,-0.42044 -0.460855,0.10142 -0.299119,0.77655 l 0.141775,0.59182 -0.467238,-0.58091 c -0.521161,-0.64795 -0.957569,-1.92713 -0.688106,-2.01695 0.635474,-0.21183 3.40422,-2.02661 3.314183,-2.17229 -0.06104,-0.0988 -0.542096,-0.24421 -1.069026,-0.32323 -0.526929,-0.079 -1.083282,-0.2689 -1.23634,-0.42195 -0.320101,-0.3201 -0.74977,-0.025 -0.772489,0.53058 -0.0083,0.20394 -0.08503,0.15009 -0.202689,-0.14234 -0.241371,-0.5999 0.08514,-1.56846 0.647046,-1.91937 0.362961,-0.22668 0.613622,-0.16345 1.756472,0.44303 0.7332,0.38909 1.49145,0.76821 1.684999,0.84248 0.268072,0.10287 0.680755,-0.33662 1.732245,-1.84478 0.75919,-1.0889 1.38034,-2.05009 1.38034,-2.13599 0,-0.0859 -0.33337,-0.10207 -0.74083,-0.036 -0.40746,0.0661 -0.74083,0.0701 -0.74083,0.009 0,-0.13076 4.00501,-4.9209 5.01689,-6.00038 0.38194,-0.40746 0.69526,-0.9205 0.69627,-1.14009 0.001,-0.2196 -0.19111,-1.60072 -0.42693,-3.06917 -0.23582,-1.46845 -0.54538,-3.56702 -0.68792,-4.6635 -0.15678,-1.20609 -0.36366,-2.02827 -0.52373,-2.08139 -0.20721,-0.0688 -0.26458,1.12646 -0.26458,5.51205 v 5.59985 l -0.94777,0.87363 c -0.52128,0.48049 -1.04515,0.87362 -1.16417,0.87362 -0.14275,0 -0.2164,-2.22551 -0.2164,-6.53902 0,-5.41458 -0.051,-6.55861 -0.2968,-6.65292 -0.16325,-0.0626 -0.34383,-0.0669 -0.4013,-0.009 -0.0575,0.0575 -0.0525,3.23593 0.0111,7.06325 l 0.11556,6.95877 -1.03498,0.96387 c -0.883503,0.8228 -1.056358,0.90989 -1.181052,0.59508 -0.08034,-0.20284 -0.152767,-3.90575 -0.16095,-8.22869 -0.01453,-7.67528 -0.02482,-7.8625 -0.438168,-7.97059 -0.419847,-0.10979 -0.42217,-0.0398 -0.285546,8.60073 l 0.137746,8.71142 -1.037371,1.0053 c -0.570554,0.55292 -1.096847,1.00536 -1.169541,1.00542 -0.07269,6e-5 -0.17252,-4.52543 -0.221837,-10.05666 -0.08113,-9.0999 -0.123823,-10.09094 -0.448644,-10.41576 -0.337524,-0.33752 -0.350648,0.28342 -0.219612,10.39073 l 0.139365,10.7497 -1.035799,0.96463 -1.0358,0.96464 -0.138703,-0.7165 c -0.07629,-0.39407 -0.201843,-6.00287 -0.279014,-12.464 -0.121228,-10.1498 -0.18444,-11.79068 -0.464785,-12.065 -0.291481,-0.28521 -0.308997,1.02079 -0.172261,12.84397 l 0.152212,13.16147 -1.034809,0.95113 -1.03481,0.95114 -0.166822,-3.95261 c -0.09175,-2.17393 -0.187003,-10.38197 -0.211667,-18.2401 l -0.04484,-14.2875 0.47625,-0.96641 c 0.563258,-1.14297 0.577274,-1.25609 0.155639,-1.25609 -0.375192,0 -1.159117,-1.19735 -1.160265,-1.77217 -6.66e-4,-0.33358 0.05103,-0.35333 0.326502,-0.1247 0.437324,0.36294 2.403137,0.31789 4.117707,-0.0944 3.082141,-0.74111 4.424946,-0.30277 5.508569,1.7982 0.380156,0.73706 0.380256,0.77828 0.0034,1.39801 -0.931511,1.53175 -3.186312,2.05142 -4.415007,1.01754 -0.345883,-0.29104 -0.724873,-0.52917 -0.8422,-0.52917 -0.275737,0 -0.678068,1.15698 -0.678068,1.94991 0,0.92656 1.023233,2.83216 2.00834,3.7402 1.667353,1.53691 5.594401,2.98823 8.085691,2.98823 h 1.1243 v -0.92665 c 0,-1.07567 0.36083,-2.02395 1.50327,-3.95068 0.47981,-0.8092 0.87789,-1.79901 0.9577,-2.38125 l 0.13657,-0.99642 h -1.09393 c -1.26835,0 -2.83152,-0.54926 -2.37179,-0.83339 0.22606,-0.13971 0.19678,-0.20796 -0.1343,-0.31304 -0.23286,-0.0739 -0.60264,-0.3386 -0.82172,-0.5882 -0.39157,-0.44612 -0.39115,-0.45093 0.025,-0.28359 1.99795,0.80344 4.1275,1.21958 4.1275,0.80656 0,-0.11675 -0.25111,-0.4634 -0.55803,-0.77031 -0.60158,-0.60158 -1.6983,-0.75704 -2.15051,-0.30483 -0.3148,0.3148 -0.7328,-0.19651 -1.12083,-1.37105 -0.22352,-0.67658 -0.21222,-0.90979 0.073,-1.50801 0.39227,-0.8226 1.24231,-1.07845 2.56492,-0.772 0.45069,0.10442 0.94388,0.14211 1.09598,0.0837 0.15209,-0.0584 1.11685,0.22997 2.1439,0.64075 1.02705,0.41078 2.29041,0.81443 2.80748,0.89699 l 0.94012,0.15011 -0.69148,0.57728 -0.69149,0.57727 0.31842,1.34711 c 0.56391,2.38567 1.19124,7.34546 1.19442,9.44336 6.2e-4,0.40954 0.11191,0.4759 0.79448,0.47375 1.9355,-0.006 5.56364,-1.23751 7.28265,-2.47177 2.18555,-1.56925 3.29337,-4.62431 2.21274,-6.10215 -0.27746,-0.37945 -0.31543,-0.37257 -0.96612,0.17495 -0.37253,0.31346 -0.9081,0.62785 -1.19017,0.69864 -1.06806,0.26807 -2.55323,-0.49176 -3.27227,-1.67413 -0.37854,-0.62247 -0.37823,-0.66147 0.0117,-1.42572 0.5073,-0.99439 1.48254,-1.8203 2.47203,-2.09351 0.5957,-0.16449 1.19117,-0.11853 2.63702,0.20353 2.06767,0.46057 3.26045,0.52144 4.08376,0.20842 0.51944,-0.19749 0.53904,-0.1795 0.40363,0.37042 -0.18521,0.75217 -0.65136,1.46255 -1.06349,1.6207 -0.29584,0.11353 -0.29584,0.17442 -8e-5,0.62582 0.91194,1.3918 0.95055,2.14838 1.03001,20.18605 0.0417,9.45885 0.0452,17.19792 0.008,17.19792 -0.0373,0 -0.54002,-0.44166 -1.11711,-0.98147 l -1.04927,-0.98146 v -12.77687 c 0,-7.84257 -0.0769,-12.77687 -0.19917,-12.77687 -0.10955,0 -0.26063,0.0994 -0.33573,0.22095 -0.0751,0.12152 -0.12447,5.75235 -0.1097,12.51295 l 0.0269,12.29201 -0.82274,-0.65162 c -0.45251,-0.3584 -0.91974,-0.77429 -1.03829,-0.92421 -0.17281,-0.21854 -0.47663,-13.00582 -0.48359,-20.35392 -8.7e-4,-0.92534 -0.0361,-1.00217 -0.34283,-0.74762 -0.31001,0.25729 -0.32721,1.22058 -0.18469,10.34237 l 0.15716,10.05865 -1.13822,-0.97728 -1.13823,-0.97727 -0.12313,-8.65126 c -0.0677,-4.75819 -0.13917,-8.68673 -0.15875,-8.73009 -0.0196,-0.0434 -0.17321,0.0354 -0.34137,0.17492 -0.26093,0.21655 -0.28746,1.454 -0.18099,8.43967 l 0.12477,8.18592 -0.49708,-0.42334 c -0.2734,-0.23283 -0.81108,-0.70057 -1.19485,-1.03942 l -0.69776,-0.6161 v -6.95099 c 0,-6.03755 -0.0417,-6.95099 -0.3175,-6.95099 -0.2754,0 -0.3175,0.87019 -0.3175,6.56167 0,3.60892 -0.0714,6.5576 -0.15875,6.55264 -0.0873,-0.005 -0.58738,-0.38513 -1.11125,-0.8448 l -0.9525,-0.83578 -0.0687,-5.5052 c -0.0569,-4.55671 -0.12001,-5.5052 -0.36639,-5.5052 -0.35963,0 -0.45393,0.41339 -0.62768,2.75167 -0.12394,1.66777 -0.52,4.66388 -0.84686,6.40618 -0.13142,0.70052 -0.0395,0.84924 1.81361,2.93379 1.07362,1.20773 2.24,2.52924 2.59197,2.9367 0.35197,0.40746 0.83924,0.966 1.08284,1.24121 l 0.4429,0.50039 -0.91608,-0.15136 -0.91608,-0.15136 0.31407,0.60348 c 0.17274,0.33191 0.56105,0.88922 0.86291,1.23847 0.30185,0.34925 0.54895,0.69187 0.54909,0.76137 1.4e-4,0.0695 0.1991,0.35525 0.44213,0.635 0.24304,0.27975 0.51291,0.63512 0.59973,0.78972 0.12288,0.21879 0.43538,0.13194 1.41021,-0.39191 0.6888,-0.37015 1.42004,-0.82187 1.62499,-1.00382 0.34081,-0.30256 0.4167,-0.28942 0.8886,0.15391 0.55008,0.51678 0.87976,1.53138 0.62928,1.93666 -0.10043,0.1625 -0.24623,0.0748 -0.43151,-0.25941 -0.15391,-0.27767 -0.28321,-0.38579 -0.28734,-0.24027 -0.004,0.14552 -0.22181,0.26603 -0.48375,0.2678 -0.26194,0.002 -0.90014,0.12994 -1.41823,0.28484 l -0.94198,0.28163 0.62448,0.3805 c 0.34346,0.20928 0.86261,0.5388 1.15365,0.73228 0.29104,0.19348 0.83873,0.47713 1.21708,0.63033 0.84454,0.34199 0.91366,1.0361 0.21231,2.13221 l -0.47403,0.74083 -0.0681,-0.69194 c -0.0388,-0.39497 -0.15906,-0.63569 -0.28009,-0.56088 -0.11663,0.0721 -0.56289,-0.22125 -0.99171,-0.65183 -0.42882,-0.43059 -1.05189,-0.9778 -1.38459,-1.21604 l -0.60493,-0.43317 0.0503,1.77693 c 0.0704,2.48708 0.0729,2.47672 -0.69256,2.94342 -0.93512,0.57015 -1.07255,0.52982 -0.69335,-0.20348 0.40341,-0.78012 0.40239,-0.85718 -0.0114,-0.85718 -0.25063,0 -0.3064,-0.1457 -0.2228,-0.58208 0.0613,-0.32015 0.1735,-1.1774 0.24926,-1.905 0.16082,-1.54442 -0.004,-1.6455 -1.27743,-0.78159 -0.43873,0.29773 -0.92262,0.49339 -1.07531,0.4348 -0.18199,-0.0698 -0.30018,0.10318 -0.3431,0.50222 -0.059,0.54906 -0.10334,0.58084 -0.45168,0.32407 -0.2526,-0.1862 -0.40859,-0.61656 -0.45089,-1.24397 -0.0623,-0.92447 -0.0406,-0.96399 0.59788,-1.08893 0.3644,-0.0713 1.16783,-0.23557 1.78539,-0.36502 l 1.12284,-0.23538 -1.54088,-1.55123 c -0.84748,-0.85317 -1.60971,-1.55122 -1.69385,-1.55122 -0.0841,0 -0.18178,0.49963 -0.21697,1.11029 l -0.064,1.11028 -1.27,-2.10544 -1.27,-2.10545 -0.0637,1.21497 c -0.0909,1.73352 0.28022,4.66314 0.80369,6.3439 0.58505,1.8785 1.65702,3.01479 3.03975,3.22214 0.524,0.0786 1.05474,0.0798 1.17942,0.003 0.33051,-0.20426 0.28154,-0.0206 -0.22211,0.83302 -0.80569,1.36555 -2.14476,1.70448 -4.0443,1.02366 -0.55034,-0.19725 -1.03335,-0.31678 -1.07337,-0.26563 -0.04,0.0511 -0.50906,0.63793 -1.04234,1.30396 l -0.9696,1.21096 z m -0.42746,-46.76568 c 0.32345,-0.51793 0.17594,-0.78216 -0.24269,-0.43473 -0.34386,0.28538 -0.58496,0.11153 -0.42466,-0.30619 0.0626,-0.16324 0.008,-0.29681 -0.12042,-0.29681 -0.29468,0 -0.30228,0.53584 -0.0152,1.07225 0.28041,0.52396 0.45898,0.51628 0.80297,-0.0345 z M 29.125591,215.83654 c -2.83326,-0.19958 -6.51778,-0.71379 -8.5725,-1.19638 -0.756708,-0.17772 -1.661583,-0.38331 -2.010833,-0.45687 -0.34925,-0.0736 -0.8255,-0.20993 -1.058334,-0.30305 -0.232833,-0.0931 -0.994833,-0.3292 -1.693333,-0.52462 -0.6985,-0.19541 -1.4605,-0.43581 -1.693333,-0.53421 -0.232834,-0.0984 -0.756709,-0.29806 -1.164167,-0.44369 -2.759679,-0.98633 -9.1233537,-4.19358 -10.7279609,-5.40682 -0.370587,-0.2802 -0.775399,-0.50946 -0.899583,-0.50946 -0.124184,0 -0.22579,-0.0888 -0.22579,-0.1974 0,-0.10857 -0.17370899,-0.25254 -0.38601899,-0.31992 -0.212311,-0.0674 -0.569576,-0.28812 -0.793923,-0.49052 -0.224346,-0.20239 -0.788825,-0.65214 -1.25439701,-0.99944 -0.465572,-0.3473 -1.036994,-0.79397 -1.269827,-0.99259 -0.232834,-0.19863 -0.657837,-0.56228 -0.944451,-0.80812 -1.5542,-1.33311 -4.4615,-4.28921 -6.25332,-6.35831 -0.7802901,-0.90102 -2.5847901,-3.36368 -3.4075401,-4.65037 -0.33498,-0.52387 -0.65758,-1.00012 -0.71688,-1.05833 -0.0593,-0.0582 -0.21175,-0.29633 -0.3388,-0.52917 -0.12704,-0.23283 -0.51883,-0.9472 -0.87065,-1.5875 -0.98357,-1.79001 -1.9091,-3.62152 -2.27297,-4.49791 -0.18125,-0.43656 -0.45814,-1.10331 -0.61531,-1.48167 -0.15716,-0.37835 -0.40489,-1.02129 -0.55052,-1.42875 -0.14563,-0.40746 -0.34089,-0.93133 -0.43392,-1.16417 -0.14867,-0.37212 -0.45502,-1.40661 -1.06559,-3.59833 -0.49806,-1.78783 -0.85989,-3.73958 -1.46244,-7.88851 -0.28946,-1.99305 -0.28847,-9.3331 0.002,-11.31631 0.5453,-3.72931 0.88953,-5.80948 1.0427,-6.30101 0.0907,-0.29105 0.28038,-0.9578 0.42151,-1.48167 0.45364,-1.68381 1.2772,-4.31464 1.62339,-5.18583 0.18504,-0.46567 0.41058,-1.03717 0.50119,-1.27 1.06616,-2.73963 4.22421,-8.78277 4.68264,-8.96056 0.10007,-0.0388 0.18193,-0.15752 0.18193,-0.26382 0,-0.1815 1.62699,-2.54799 2.47345,-3.5977 4.4436921,-5.51063 9.4762641,-9.87637 14.9890563,-13.00296 2.578402,-1.46235 6.6680417,-3.35539 8.4666667,-3.9191 0.465666,-0.14595 1.037166,-0.33788 1.27,-0.42652 0.381729,-0.14533 1.880373,-0.57499 3.280833,-0.94061 0.291042,-0.076 0.862542,-0.23005 1.27,-0.34237 2.496135,-0.68809 7.128248,-1.23696 11.535834,-1.36689 l 3.386666,-0.0998 0.256835,-1.53148 c 0.141259,-0.84232 0.312859,-1.96011 0.381332,-2.48399 0.06847,-0.52387 0.208728,-1.28587 0.311678,-1.69333 0.102949,-0.40746 0.338405,-1.35996 0.523235,-2.11667 0.571931,-2.341535 1.158834,-4.317197 1.603415,-5.397497 0.09582,-0.23283 0.378709,-0.99483 0.628645,-1.69333 0.601876,-1.68208 0.859058,-2.25798 2.457652,-5.50334 1.394683,-2.831388 2.212366,-4.365468 2.425649,-4.550831 0.06698,-0.05821 0.305101,-0.436352 0.529167,-0.84032 0.224066,-0.403968 0.479595,-0.832593 0.567842,-0.9525 0.08825,-0.119907 0.890447,-1.265763 1.782665,-2.546347 0.892218,-1.280583 1.677266,-2.375958 1.74455,-2.434166 0.06728,-0.05821 0.55096,-0.629164 1.074835,-1.268789 3.139284,-3.83291 7.663562,-8.145668 11.218334,-10.693852 0.640292,-0.458983 1.290033,-0.95553 1.443869,-1.103438 0.153837,-0.147907 0.350189,-0.268922 0.436338,-0.268922 0.08615,0 0.346483,-0.166688 0.578518,-0.370417 0.491976,-0.43196 0.603786,-0.503978 3.256275,-2.097424 3.380663,-2.030885 8.009188,-4.282113 11.006667,-5.353436 0.407459,-0.145629 0.931334,-0.339353 1.164167,-0.430498 0.232833,-0.09114 0.994833,-0.333 1.693333,-0.537455 0.6985,-0.204456 1.4605,-0.445695 1.693334,-0.536087 1.153409,-0.447784 5.183541,-1.318604 7.831666,-1.692245 0.814917,-0.114982 1.606436,-0.254019 1.758932,-0.308971 0.152496,-0.05495 2.009871,-0.19792 4.1275,-0.317705 5.326423,-0.301293 11.181421,0.02967 15.597741,0.881701 2.00995,0.387774 4.10677,0.847657 4.65667,1.021322 0.29104,0.09192 0.95779,0.286223 1.48166,0.431795 1.21581,0.337844 4.41329,1.385599 5.21006,1.707237 0.33592,0.135608 0.82509,0.329949 1.08703,0.431871 3.83493,1.492196 10.06462,4.877548 13.70541,7.447833 5.92816,4.185093 11.12941,9.250154 14.93006,14.539146 0.62743,0.873125 1.19196,1.635125 1.25453,1.693334 0.13043,0.121355 0.20583,0.24264 1.84219,2.963333 1.42098,2.362584 3.71772,6.861581 4.22976,8.285531 l 0.3592,0.99891 5.94297,0.0991 c 5.71717,0.0953 6.6982,0.1801 9.96463,0.8611 2.51401,0.52414 2.73868,0.57714 3.175,0.74906 0.23283,0.0917 0.94721,0.33078 1.5875,0.5312 0.64029,0.20041 1.35467,0.44415 1.5875,0.54164 0.23283,0.0975 0.89958,0.34327 1.48167,0.54618 0.58208,0.20291 1.14882,0.44843 1.25941,0.54561 0.1106,0.0972 0.37254,0.17668 0.58209,0.17668 0.20955,0 0.381,0.0953 0.381,0.21167 0,0.11641 0.10314,0.21166 0.22921,0.21166 0.23955,0 2.90422,1.29715 4.26385,2.075617 1.15583,0.66179 3.63916,2.22482 3.76194,2.36781 0.0582,0.0678 0.79738,0.62153 1.64262,1.23055 3.35145,2.4148 6.32959,5.22698 9.4581,8.93102 1.6711,1.97854 4.13927,5.38771 4.13927,5.7174 0,0.1151 0.0952,0.20927 0.21166,0.20927 0.11642,0 0.21167,0.0816 0.21167,0.18129 0,0.0997 0.45695,0.98078 1.01544,1.95792 0.55849,0.97714 1.16928,2.11 1.35732,2.51746 1.32155,2.86372 1.68604,3.7311 1.79336,4.26766 0.067,0.33521 0.20484,0.66075 0.30622,0.7234 0.10138,0.0627 0.18433,0.30009 0.18433,0.52764 0,0.22754 0.0863,0.5791 0.19178,0.78125 0.10548,0.20215 0.35433,0.98667 0.55299,1.74338 0.19867,0.75671 0.43682,1.61396 0.52923,1.905 0.0924,0.29104 0.33852,1.54152 0.54692,2.77884 0.37441,2.22301 0.38782,2.25435 1.13107,2.64336 0.89445,0.46814 4.09335,2.44606 4.24467,2.62453 0.0582,0.0686 0.48684,0.40315 0.9525,0.74333 1.28924,0.94183 4.02883,3.6287 5.38948,5.28578 2.86171,3.48513 4.59482,6.55515 6.57202,11.64166 0.85576,2.20151 1.3927,4.38335 2.01793,8.19981 0.38274,2.33629 0.3284,10.1743 -0.0877,12.64936 -1.48807,8.85141 -5.72102,16.86521 -12.20089,23.09864 -1.92093,1.84787 -5.96334,4.97781 -7.51167,5.8161 -0.40746,0.2206 -0.78846,0.4529 -0.84667,0.51623 -0.12188,0.13259 -5.81963,2.9232 -6.45583,3.16189 -0.23283,0.0874 -0.66146,0.26233 -0.9525,0.38883 -1.64021,0.71288 -6.27889,1.92335 -9.10167,2.3751 -4.39066,0.70267 -5.18762,0.72181 -30.26832,0.7271 l -25.0825,0.005 -0.0551,-9.35988 -0.0551,-9.35989 26.09012,-0.0781 c 21.49096,-0.0643 26.32031,-0.13077 27.39604,-0.37679 0.71826,-0.16426 1.37707,-0.3701 1.46402,-0.45741 0.087,-0.0873 0.38164,-0.15875 0.65486,-0.15875 0.27322,0 0.66215,-0.0856 0.8643,-0.19016 0.20215,-0.10459 1.08192,-0.45047 1.95505,-0.76862 1.95236,-0.71141 4.34226,-1.96716 6.0512,-3.17954 1.48464,-1.05325 4.37985,-3.82949 5.28641,-5.06919 0.34053,-0.46566 0.67159,-0.89429 0.73568,-0.9525 0.27767,-0.25217 1.86157,-2.95708 2.35495,-4.02166 1.60543,-3.46413 2.16929,-6.16956 2.16164,-10.37167 -0.006,-3.16808 -0.45994,-6.5254 -0.95779,-7.08025 -0.0992,-0.1106 -0.18043,-0.37383 -0.18043,-0.58496 0,-0.21113 -0.0906,-0.54926 -0.20141,-0.75141 -0.11078,-0.20215 -0.35691,-0.74855 -0.54696,-1.21421 -1.98657,-4.86752 -6.06838,-9.21071 -10.99913,-11.70344 -2.48524,-1.25641 -5.45909,-2.3724 -6.3219,-2.3724 -0.2576,0 -0.3038,-0.63564 -0.28842,-3.96875 0.0112,-2.42939 -0.0824,-4.42029 -0.24128,-5.13291 -0.14277,-0.6403 -0.40397,-1.83092 -0.58045,-2.64584 -0.17647,-0.81491 -0.397,-1.67216 -0.49007,-1.905 -0.0931,-0.23283 -0.34314,-0.94721 -0.55572,-1.5875 -1.0224,-3.07942 -3.60037,-7.41828 -6.09828,-10.26375 -1.78549,-2.03391 -2.54325,-2.74014 -5.72041,-5.33142 -0.74751,-0.60966 -3.65977,-2.3965 -3.90592,-2.3965 -0.13477,0 -0.24504,-0.072 -0.24504,-0.15999 0,-0.088 -0.30956,-0.29405 -0.68791,-0.45789 -0.37836,-0.16385 -1.16417,-0.50725 -1.74625,-0.76313 -3.3353,-1.46616 -4.66772,-1.85846 -9.73667,-2.86674 -1.72258,-0.34264 -8.71463,-0.3455 -10.58333,-0.004 -3.06964,0.56043 -5.27432,1.08693 -6.35,1.51644 -0.23284,0.093 -0.66146,0.2353 -0.9525,0.31628 -0.29105,0.081 -1.22669,0.46797 -2.07921,0.85997 -0.85252,0.392 -1.62816,0.71273 -1.72364,0.71273 -0.0955,0 -0.28813,-0.59532 -0.42812,-1.32292 -0.40824,-2.1218 -0.58289,-2.93057 -0.94843,-4.39208 -0.18926,-0.75671 -0.39818,-1.63894 -0.46426,-1.96051 -0.0661,-0.32157 -0.20443,-0.63676 -0.30742,-0.70041 -0.10299,-0.0636 -0.18726,-0.28218 -0.18726,-0.48562 0,-0.34993 -1.3223,-3.93039 -2.04294,-5.531797 -1.46973,-3.26602 -3.36084,-6.55382 -3.7779,-6.56808 -0.11641,-0.004 -0.49741,-0.42119 -0.84666,-0.92714 -1.30385,-1.88884 -6.3464,-7.271909 -8.15025,-8.700632 -2.62509,-2.079171 -3.548,-2.748612 -5.32794,-3.864672 -2.68912,-1.686128 -7.53112,-4.063068 -9.59348,-4.709442 -0.46567,-0.145947 -1.03717,-0.343434 -1.27,-0.438861 -0.45077,-0.184749 -1.84951,-0.568099 -3.06917,-0.841163 -0.40746,-0.09122 -1.36995,-0.307802 -2.13887,-0.481286 -5.72647,-1.292009 -13.482981,-1.174849 -19.451131,0.293804 -1.740208,0.428234 -3.30646,0.886181 -3.648378,1.066728 -0.20215,0.106744 -0.553716,0.194079 -0.781258,0.194079 -0.227543,0 -0.46606,0.0847 -0.530039,0.188219 -0.06398,0.10352 -0.379163,0.25222 -0.700409,0.330444 -1.517192,0.36944 -5.786937,2.524221 -8.651597,4.366138 -1.150868,0.739983 -2.140111,1.399222 -2.19832,1.464974 -0.05821,0.06575 -0.507392,0.409885 -0.998187,0.764739 -2.508996,1.814052 -6.573385,5.75373 -8.832148,8.561141 -0.696797,0.86605 -3.504665,4.84981 -3.504665,4.97237 0,0.0636 -0.313702,0.61113 -0.697116,1.21673 -1.965349,3.10423 -4.203152,8.629387 -5.118206,12.636907 -0.199365,0.87313 -0.444418,1.92088 -0.544563,2.32834 -1.025401,4.17202 -1.024057,14.18091 0.0025,18.415 0.09879,0.40746 0.345454,1.45521 0.548152,2.32833 0.202698,0.87313 0.461367,1.70656 0.574819,1.85209 0.145638,0.1868 0.108995,0.26458 -0.124649,0.26458 -0.182009,0 -0.386065,-0.0892 -0.453458,-0.19826 -0.06739,-0.10905 -0.430203,-0.36002 -0.806242,-0.55771 -1.486154,-0.78132 -4.326949,-2.17846 -5.128709,-2.52236 -1.398009,-0.59966 -1.644459,-0.6921 -2.8575,-1.07178 -0.640292,-0.20042 -1.354667,-0.43725 -1.5875,-0.52629 -0.422213,-0.16146 -2.449661,-0.58911 -4.881075,-1.02957 -1.879856,-0.34053 -8.726218,-0.287 -10.888092,0.0851 -1.913852,0.32945 -3.434695,0.67672 -4.1275,0.94247 -0.232834,0.0893 -0.994834,0.33794 -1.693334,0.55251 -0.6985,0.21456 -1.412875,0.46027 -1.5875,0.54601 -0.174625,0.0858 -1.317625,0.64634 -2.54,1.24577 -1.903663,0.93351 -4.143514,2.36473 -6.150743,3.93021 -0.7502397,0.58512 -4.8732587,4.71922 -5.5738787,5.58886 -0.328269,0.40746 -0.943688,1.26471 -1.367599,1.905 -0.42391,0.64029 -0.8186412,1.21179 -0.8771792,1.27 -0.05854,0.0582 -0.210253,0.29633 -0.337144,0.52917 -0.239717,0.43985 -1.139216,2.06094 -1.53608299,2.76834 -0.401263,0.71524 -1.222579,2.69831 -1.614885,3.89916 -0.20917901,0.64029 -0.45744501,1.35466 -0.55170201,1.5875 -0.163815,0.40465 -0.506998,1.92255 -1.049697,4.64282 -0.327047,1.63933 -0.333048,8.81479 -0.0086,10.30082 0.137251,0.62866 0.396115,1.80977 0.575253,2.62469 1.33439001,6.07029 4.600983,11.89864 9.2578072,16.51804 2.7346037,2.71263 5.0032977,4.39734 8.5994657,6.38588 1.506154,0.83284 4.984736,2.17043 6.773334,2.6045 0.407458,0.0989 1.359958,0.34507 2.116666,0.54708 1.254478,0.33489 3.530803,0.37819 25.807093,0.4909 l 24.431258,0.1236 0.01624,9.31334 0.01624,9.31333 -22.436667,0.0152 c -12.340167,0.008 -22.912917,-0.0183 -23.495001,-0.0593 z"
       id="path11" /></g></svg>
